<svg width="166" height="102" viewBox="0 0 166 102" fill="none" xmlns="http://www.w3.org/2000/svg">
<path fill-rule="evenodd" clip-rule="evenodd" d="M73.8551 0L114.873 71.1243H101.2L73.8548 23.708L32.8364 94.8327L26 82.9786L73.8551 0Z" fill="#F99B81"/>
<path fill-rule="evenodd" clip-rule="evenodd" d="M73.8551 0L32.8364 94.8327L26 82.9786L73.8551 0Z" fill="#F8CA51"/>
<path fill-rule="evenodd" clip-rule="evenodd" d="M73.8547 0L73.8543 23.708L32.8359 94.8327L73.8547 0Z" fill="#F9AF54"/>
<path fill-rule="evenodd" clip-rule="evenodd" d="M73.8535 0L114.872 71.1244H101.199L73.8535 0Z" fill="#FA7789"/>
<path fill-rule="evenodd" clip-rule="evenodd" d="M140.752 85.844L58.7148 85.8436L65.5512 73.9897L120.243 73.9897L79.2238 2.86523L92.8966 2.86532L140.752 85.844Z" fill="#1993C6"/>
<path fill-rule="evenodd" clip-rule="evenodd" d="M140.751 85.844L79.2236 2.86523L92.8965 2.86532L140.751 85.844Z" fill="#35D5D5"/>
<path fill-rule="evenodd" clip-rule="evenodd" d="M140.751 85.844L120.242 73.9897L79.2236 2.86523L140.751 85.844Z" fill="#2CBED7"/>
<path fill-rule="evenodd" clip-rule="evenodd" d="M140.752 85.8504L58.7148 85.8501L65.5512 73.9961L140.752 85.8504Z" fill="#106FB0"/>
<path fill-rule="evenodd" clip-rule="evenodd" d="M33.2627 101.495L74.2814 30.3711L81.1177 42.2251L53.772 89.6413L135.809 89.6411L128.973 101.495L33.2627 101.495Z" fill="#565BD8"/>
<path fill-rule="evenodd" clip-rule="evenodd" d="M33.2627 101.493L135.809 89.6387L128.973 101.493L33.2627 101.493Z" fill="#DA76CB"/>
<path fill-rule="evenodd" clip-rule="evenodd" d="M33.2627 101.493L53.772 89.6389L135.809 89.6387L33.2627 101.493Z" fill="#A26BD2"/>
<path fill-rule="evenodd" clip-rule="evenodd" d="M33.2627 101.495L74.2814 30.3711L81.1177 42.2251L33.2627 101.495Z" fill="#2C45AB"/>
<path d="M148 97C148 96.0455 149.185 95.3361 149.185 95.3361C149.185 95.3361 151.284 94.0301 153.111 94.0301H161.956V9.50917H153.111C151.284 9.50917 149.185 8.20317 149.185 8.20317C149.185 8.20317 148 7.90909 148 6H166V97H148Z" fill="#6BABD2"/>
<path d="M18 97C18 96.0455 16.8148 95.3361 16.8148 95.3361C16.8148 95.3361 14.716 94.0301 12.8889 94.0301H4.04404V9.50917H12.8889C14.716 9.50917 16.8148 8.20317 16.8148 8.20317C16.8148 8.20317 18 7.90909 18 6H0V97H18Z" fill="#6BABD2"/>
</svg>
