<svg width="180" height="102" viewBox="0 0 180 102" fill="none" xmlns="http://www.w3.org/2000/svg">
<path fill-rule="evenodd" clip-rule="evenodd" d="M80.0377 0.503906L121.056 71.6283H107.383L80.0374 24.2119L39.019 95.3367L32.1826 83.4825L80.0377 0.503906Z" fill="#F99B81"/>
<path fill-rule="evenodd" clip-rule="evenodd" d="M80.0377 0.503906L39.019 95.3367L32.1826 83.4825L80.0377 0.503906Z" fill="#F8CA51"/>
<path fill-rule="evenodd" clip-rule="evenodd" d="M80.0373 0.503906L80.037 24.2119L39.0186 95.3367L80.0373 0.503906Z" fill="#F9AF54"/>
<path fill-rule="evenodd" clip-rule="evenodd" d="M80.0361 0.503906L121.054 71.6283H107.381L80.0361 0.503906Z" fill="#FA7789"/>
<path fill-rule="evenodd" clip-rule="evenodd" d="M146.934 86.3479L64.8975 86.3476L71.7339 74.4936L126.425 74.4936L85.4064 3.36914L99.0793 3.36923L146.934 86.3479Z" fill="#1993C6"/>
<path fill-rule="evenodd" clip-rule="evenodd" d="M146.934 86.3479L85.4062 3.36914L99.0791 3.36923L146.934 86.3479Z" fill="#35D5D5"/>
<path fill-rule="evenodd" clip-rule="evenodd" d="M146.934 86.3479L126.425 74.4936L85.4062 3.36914L146.934 86.3479Z" fill="#2CBED7"/>
<path fill-rule="evenodd" clip-rule="evenodd" d="M146.934 86.3544L64.8975 86.354L71.7339 74.5L146.934 86.3544Z" fill="#106FB0"/>
<path fill-rule="evenodd" clip-rule="evenodd" d="M39.4453 101.999L80.464 30.875L87.3003 42.729L59.9546 90.1452L141.992 90.145L135.155 101.999L39.4453 101.999Z" fill="#565BD8"/>
<path fill-rule="evenodd" clip-rule="evenodd" d="M39.4453 101.997L141.992 90.1426L135.155 101.997L39.4453 101.997Z" fill="#DA76CB"/>
<path fill-rule="evenodd" clip-rule="evenodd" d="M39.4453 101.997L59.9546 90.1428L141.992 90.1426L39.4453 101.997Z" fill="#A26BD2"/>
<path fill-rule="evenodd" clip-rule="evenodd" d="M39.4453 101.999L80.464 30.875L87.3003 42.729L39.4453 101.999Z" fill="#2C45AB"/>
<path d="M20.0447 22L23 24.4404L5.07542 59.953L22.9358 96.2229L20.0447 99L0.385475 61.8044C0.171322 61.2995 0.0428306 60.7665 0 60.2055C0 59.6444 0.128491 59.0554 0.385475 58.4382L20.0447 22Z" fill="#BC7EB3"/>
<path d="M159.955 22L157 24.4404L174.925 59.953L157.064 96.2229L159.955 99L179.615 61.8044C179.829 61.2995 179.957 60.7665 180 60.2055C180 59.6444 179.872 59.0554 179.615 58.4382L159.955 22Z" fill="#BC7EB3"/>
</svg>
