<?xml version="1.0" encoding="UTF-8" standalone="no"?>
<svg
   width="73.5159mm"
   height="17.585445mm"
   viewBox="0 0 73.5159 17.585445"
   version="1.1"
   id="svg1115"
   sodipodi:docname="kamu_logo.svg"
   inkscape:version="1.1.1 (3bf5ae0d25, 2021-09-20)"
   xmlns:inkscape="http://www.inkscape.org/namespaces/inkscape"
   xmlns:sodipodi="http://sodipodi.sourceforge.net/DTD/sodipodi-0.dtd"
   xmlns="http://www.w3.org/2000/svg"
   xmlns:svg="http://www.w3.org/2000/svg"
   xmlns:rdf="http://www.w3.org/1999/02/22-rdf-syntax-ns#"
   xmlns:cc="http://creativecommons.org/ns#"
   xmlns:dc="http://purl.org/dc/elements/1.1/">
  <sodipodi:namedview
     id="namedview26"
     pagecolor="#ffffff"
     bordercolor="#666666"
     borderopacity="1.0"
     inkscape:pageshadow="2"
     inkscape:pageopacity="0.0"
     inkscape:pagecheckerboard="0"
     inkscape:document-units="mm"
     showgrid="false"
     fit-margin-top="0"
     fit-margin-left="0"
     fit-margin-right="0"
     fit-margin-bottom="0"
     inkscape:zoom="5.4841486"
     inkscape:cx="171.12957"
     inkscape:cy="44.947724"
     inkscape:window-width="1872"
     inkscape:window-height="1032"
     inkscape:window-x="0"
     inkscape:window-y="0"
     inkscape:window-maximized="1"
     inkscape:current-layer="text1137" />
  <defs
     id="defs1109">
    <rect
       x="32.472408"
       y="25.505571"
       width="113.16161"
       height="32.303974"
       id="rect1139" />
    <rect
       x="32.472408"
       y="25.505571"
       width="113.16161"
       height="32.303974"
       id="rect1089" />
  </defs>
  <metadata
     id="metadata1112">
    <rdf:RDF>
      <cc:Work
         rdf:about="">
        <dc:format>image/svg+xml</dc:format>
        <dc:type
           rdf:resource="http://purl.org/dc/dcmitype/StillImage" />
      </cc:Work>
    </rdf:RDF>
  </metadata>
  <g
     id="layer1"
     transform="translate(-91.257855,-26.73704)">
    <g
       id="g1131"
       transform="translate(15.15773,86.067009)">
      <path
         d="m 84.401039,-59.329969 7.114967,12.323611 -2.371667,-2e-6 -4.74335,-8.21575 -7.115034,12.323668 -1.18583,-2.053951 z"
         style="fill:#f99b81;fill-opacity:1;fill-rule:evenodd;stroke:none;stroke-width:0.0509804;stroke-opacity:1"
         id="path13087-7" />
      <path
         d="m 84.401039,-59.329969 -7.115084,16.431527 -1.18583,-2.053951 z"
         style="fill:#f8ca51;fill-opacity:1;fill-rule:evenodd;stroke:none;stroke-width:0.0509804;stroke-opacity:1"
         id="path1030" />
      <path
         d="m 84.401039,-59.329969 -5e-5,4.107859 -7.115034,12.323668 z"
         style="fill:#f9af54;fill-opacity:1;fill-rule:evenodd;stroke:none;stroke-width:0.0509804;stroke-opacity:1"
         id="path1033" />
      <path
         d="m 84.401039,-59.329969 7.114967,12.323611 -2.371667,-2e-6 z"
         style="fill:#fa7789;fill-opacity:1;fill-rule:evenodd;stroke:none;stroke-width:0.0509804;stroke-opacity:1"
         id="path1035" />
      <path
         d="m 96.004921,-44.455019 -14.230044,-6.4e-5 1.185836,-2.053923 9.486723,1.4e-5 -7.115093,-12.323634 2.371689,1.6e-5 z"
         style="fill:#1993c6;fill-opacity:1;fill-rule:evenodd;stroke:none;stroke-width:0.0509804;stroke-opacity:1"
         id="path1077" />
      <path
         d="m 96.004921,-44.455019 -10.672578,-14.377607 2.371689,1.6e-5 z"
         style="fill:#35d5d5;fill-opacity:1;fill-rule:evenodd;stroke:none;stroke-width:0.0509804;stroke-opacity:1"
         id="path1079" />
      <path
         d="m 96.004921,-44.455019 -3.557485,-2.053973 -7.115093,-12.323634 z"
         style="fill:#2cbed7;fill-opacity:1;fill-rule:evenodd;stroke:none;stroke-width:0.0509804;stroke-opacity:1"
         id="path1081" />
      <path
         d="m 96.004921,-44.455019 -14.230044,-6.4e-5 1.185836,-2.053923 z"
         style="fill:#106fb0;fill-opacity:1;fill-rule:evenodd;stroke:none;stroke-width:0.0509804;stroke-opacity:1"
         id="path1083" />
      <path
         d="m 77.359982,-41.744538 7.115077,-12.323548 1.185832,2.053926 -4.743374,8.215736 14.230127,-3.4e-5 -1.185859,2.053934 z"
         style="fill:#565bd8;fill-opacity:1;fill-rule:evenodd;stroke:none;stroke-width:0.0509804;stroke-opacity:1"
         id="path1101" />
      <path
         d="m 77.359982,-41.744538 17.787662,-2.05392 -1.185859,2.053934 z"
         style="fill:#da76cb;fill-opacity:1;fill-rule:evenodd;stroke:none;stroke-width:0.0509804;stroke-opacity:1"
         id="path1103" />
      <path
         d="m 77.359982,-41.744538 3.557535,-2.053886 14.230127,-3.4e-5 z"
         style="fill:#a26bd2;fill-opacity:1;fill-rule:evenodd;stroke:none;stroke-width:0.0509804;stroke-opacity:1"
         id="path1105" />
      <path
         d="m 77.359982,-41.744538 7.115077,-12.323548 1.185832,2.053926 z"
         style="fill:#2c45ab;fill-opacity:1;fill-rule:evenodd;stroke:none;stroke-width:0.0509804;stroke-opacity:1"
         id="path1107" />
    </g>
    <g
       aria-label="kamu"
       transform="translate(81.33583,1.12413)"
       id="text1137"
       style="font-size:16.9333px;line-height:1.25;white-space:pre;shape-inside:url(#rect1139);fill:#df4255">
      <path
         d="m 33.894789,27.622522 h 2.96002 v 7.003176 l 3.406504,-3.398235 h 3.439576 l -4.522712,4.249861 4.878246,5.010537 h -3.588405 l -3.613209,-3.861255 v 3.861255 h -2.96002 z"
         style="font-weight:bold;font-family:Roboto;-inkscape-font-specification:'Roboto Bold'"
         id="path25" />
      <path
         d="m 49.306738,36.320682 q -0.92604,0 -1.397328,0.314192 -0.46302,0.314192 -0.46302,0.92604 0,0.562238 0.372069,0.884699 0.380338,0.314192 1.050063,0.314192 0.83509,0 1.405596,-0.595312 0.570507,-0.603579 0.570507,-1.504814 v -0.338997 z m 4.522712,-1.116209 v 5.283388 h -2.984825 v -1.372523 q -0.595311,0.843358 -1.33945,1.231964 -0.744139,0.380337 -1.810739,0.380337 -1.438669,0 -2.339904,-0.835089 -0.892967,-0.843358 -0.892967,-2.182808 0,-1.628838 1.116209,-2.389514 1.124476,-0.760675 3.522258,-0.760675 h 1.744593 v -0.23151 q 0,-0.702799 -0.55397,-1.025259 -0.55397,-0.330728 -1.728057,-0.330728 -0.950844,0 -1.769397,0.190169 -0.818553,0.190168 -1.521351,0.570506 v -2.257222 q 0.950844,-0.23151 1.909957,-0.347265 0.959113,-0.124023 1.918225,-0.124023 2.505269,0 3.613209,0.992186 1.116209,0.983917 1.116209,3.208066 z"
         style="font-weight:bold;font-family:Roboto;-inkscape-font-specification:'Roboto Bold'"
         id="path27" />
      <path
         d="m 65.165171,32.76535 q 0.562238,-0.859894 1.331182,-1.306377 0.777212,-0.454752 1.703252,-0.454752 1.595765,0 2.430854,0.983917 0.83509,0.983918 0.83509,2.860802 v 5.638921 h -2.976557 v -4.828636 q 0.0083,-0.107487 0.0083,-0.223242 0.0083,-0.115755 0.0083,-0.330728 0,-0.983918 -0.289388,-1.422133 -0.289387,-0.446484 -0.934308,-0.446484 -0.843358,0 -1.306377,0.69453 -0.454752,0.69453 -0.471289,2.009176 v 4.547517 h -2.976556 v -4.828636 q 0,-1.537888 -0.264583,-1.976103 -0.264583,-0.446484 -0.942576,-0.446484 -0.851626,0 -1.314646,0.702799 -0.46302,0.694529 -0.46302,1.992639 v 4.555785 h -2.976557 v -9.260398 h 2.976557 v 1.355987 q 0.545702,-0.785481 1.2485,-1.182355 0.711066,-0.396874 1.562692,-0.396874 0.959113,0 1.694984,0.46302 0.735871,0.46302 1.116209,1.298109 z"
         style="font-weight:bold;font-family:Roboto;-inkscape-font-specification:'Roboto Bold'"
         id="path29" />
      <path
         d="m 74.127914,36.88292 v -5.655457 h 2.976557 v 0.92604 q 0,0.752407 -0.0083,1.89342 -0.0083,1.132745 -0.0083,1.513083 0,1.116209 0.05788,1.612302 0.05788,0.487824 0.198437,0.711066 0.181901,0.289388 0.471288,0.446484 0.297656,0.157096 0.677994,0.157096 0.92604,0 1.455205,-0.711067 0.529166,-0.711066 0.529166,-1.976103 v -4.572321 h 2.96002 v 9.260398 h -2.96002 v -1.33945 q -0.669725,0.810285 -1.422133,1.198891 -0.744139,0.380337 -1.645374,0.380337 -1.604033,0 -2.447391,-0.983917 -0.83509,-0.983917 -0.83509,-2.860802 z"
         style="font-weight:bold;font-family:Roboto;-inkscape-font-specification:'Roboto Bold'"
         id="path31" />
    </g>
  </g>
</svg>
