<svg width="137" height="33" viewBox="0 0 137 33" fill="none" xmlns="http://www.w3.org/2000/svg">
<path fill-rule="evenodd" clip-rule="evenodd" d="M15.4566 0L28.705 22.9723H24.2888L15.4565 7.65741L2.20806 30.6298L0 26.8011L15.4566 0Z" fill="#F99B81"/>
<path fill-rule="evenodd" clip-rule="evenodd" d="M15.4566 0L2.20806 30.6298L0 26.8011L15.4566 0Z" fill="#F8CA51"/>
<path fill-rule="evenodd" clip-rule="evenodd" d="M15.4575 0L15.4574 7.65741L2.20898 30.6298L15.4575 0Z" fill="#F9AF54"/>
<path fill-rule="evenodd" clip-rule="evenodd" d="M15.457 0L28.7054 22.9723H24.2892L15.457 0Z" fill="#FA7789"/>
<path fill-rule="evenodd" clip-rule="evenodd" d="M37.0633 27.7281L10.5664 27.728L12.7745 23.8993L30.4391 23.8994L17.1905 0.927002L21.6067 0.92703L37.0633 27.7281Z" fill="#1993C6"/>
<path fill-rule="evenodd" clip-rule="evenodd" d="M37.0642 27.7281L17.1914 0.927002L21.6076 0.92703L37.0642 27.7281Z" fill="#35D5D5"/>
<path fill-rule="evenodd" clip-rule="evenodd" d="M37.0642 27.7281L30.44 23.8994L17.1914 0.927002L37.0642 27.7281Z" fill="#2CBED7"/>
<path fill-rule="evenodd" clip-rule="evenodd" d="M37.0633 27.7282L10.5664 27.7281L12.7745 23.8994L37.0633 27.7282Z" fill="#106FB0"/>
<path fill-rule="evenodd" clip-rule="evenodd" d="M2.3457 32.7808L15.5942 9.80859L17.8023 13.6373L8.96997 28.9522L35.467 28.9521L33.2589 32.7808L2.3457 32.7808Z" fill="#565BD8"/>
<path fill-rule="evenodd" clip-rule="evenodd" d="M2.3457 32.7808L35.467 28.9521L33.2589 32.7809L2.3457 32.7808Z" fill="#DA76CB"/>
<path fill-rule="evenodd" clip-rule="evenodd" d="M2.3457 32.7808L8.96997 28.9522L35.467 28.9521L2.3457 32.7808Z" fill="#A26BD2"/>
<path fill-rule="evenodd" clip-rule="evenodd" d="M2.3457 32.7808L15.5942 9.80859L17.8023 13.6373L2.3457 32.7808Z" fill="#2C45AB"/>
<mask id="mask0_612_1696" style="mask-type:alpha" maskUnits="userSpaceOnUse" x="44" y="3" width="93" height="26">
<path d="M44.6387 3.74634H50.1503V16.8009L56.4934 10.4663H62.898L54.4765 18.3884L63.56 27.7285H56.8783L50.1503 20.5308V27.7285H44.6387V3.74634Z" fill="#DF4255"/>
<path d="M44.6387 3.74634H50.1503V16.8009L56.4934 10.4663H62.898L54.4765 18.3884L63.56 27.7285H56.8783L50.1503 20.5308V27.7285H44.6387V3.74634Z" fill="black" fill-opacity="0.2"/>
<path d="M73.3364 19.9604C72.1868 19.9604 71.3195 20.1556 70.7345 20.5461C70.1597 20.9365 69.8723 21.512 69.8723 22.2723C69.8723 22.971 70.1032 23.5207 70.5651 23.9215C71.0373 24.3119 71.689 24.5072 72.5204 24.5072C73.557 24.5072 74.4294 24.1372 75.1376 23.3974C75.8459 22.6474 76.2 21.7123 76.2 20.5923V19.9604H73.3364ZM81.7578 17.8797V27.7284H76.2V25.1699C75.461 26.218 74.6296 26.9835 73.7059 27.4664C72.7821 27.939 71.6582 28.1754 70.3342 28.1754C68.5483 28.1754 67.0959 27.6565 65.9772 26.6187C64.8687 25.5706 64.3145 24.2143 64.3145 22.5497C64.3145 20.5255 65.0073 19.0408 66.3929 18.0955C67.7888 17.1502 69.975 16.6775 72.9515 16.6775H76.2V16.246C76.2 15.3726 75.8561 14.7355 75.1684 14.3348C74.4808 13.9238 73.4082 13.7183 71.9507 13.7183C70.7704 13.7183 69.6722 13.8364 68.6561 14.0728C67.6399 14.3091 66.6957 14.6636 65.8232 15.1362V10.9286C67.0036 10.6409 68.1891 10.4251 69.3797 10.2812C70.5703 10.1271 71.7609 10.05 72.9515 10.05C76.0614 10.05 78.304 10.6666 79.6794 11.8996C81.065 13.1223 81.7578 15.1157 81.7578 17.8797Z" fill="#DF4255"/>
<path d="M73.3364 19.9604C72.1868 19.9604 71.3195 20.1556 70.7345 20.5461C70.1597 20.9365 69.8723 21.512 69.8723 22.2723C69.8723 22.971 70.1032 23.5207 70.5651 23.9215C71.0373 24.3119 71.689 24.5072 72.5204 24.5072C73.557 24.5072 74.4294 24.1372 75.1376 23.3974C75.8459 22.6474 76.2 21.7123 76.2 20.5923V19.9604H73.3364ZM81.7578 17.8797V27.7284H76.2V25.1699C75.461 26.218 74.6296 26.9835 73.7059 27.4664C72.7821 27.939 71.6582 28.1754 70.3342 28.1754C68.5483 28.1754 67.0959 27.6565 65.9772 26.6187C64.8687 25.5706 64.3145 24.2143 64.3145 22.5497C64.3145 20.5255 65.0073 19.0408 66.3929 18.0955C67.7888 17.1502 69.975 16.6775 72.9515 16.6775H76.2V16.246C76.2 15.3726 75.8561 14.7355 75.1684 14.3348C74.4808 13.9238 73.4082 13.7183 71.9507 13.7183C70.7704 13.7183 69.6722 13.8364 68.6561 14.0728C67.6399 14.3091 66.6957 14.6636 65.8232 15.1362V10.9286C67.0036 10.6409 68.1891 10.4251 69.3797 10.2812C70.5703 10.1271 71.7609 10.05 72.9515 10.05C76.0614 10.05 78.304 10.6666 79.6794 11.8996C81.065 13.1223 81.7578 15.1157 81.7578 17.8797Z" fill="black" fill-opacity="0.2"/>
<path d="M102.865 13.333C103.563 12.2643 104.389 11.4526 105.344 10.8977C106.308 10.3326 107.366 10.05 108.515 10.05C110.496 10.05 112.005 10.6614 113.042 11.8842C114.078 13.1069 114.596 14.8845 114.596 17.217V27.7284H109.054V18.7274C109.064 18.5938 109.069 18.4551 109.069 18.3112C109.08 18.1674 109.085 17.9619 109.085 17.6947C109.085 16.472 108.905 15.5883 108.546 15.0438C108.187 14.4889 107.607 14.2115 106.806 14.2115C105.759 14.2115 104.949 14.643 104.374 15.5061C103.809 16.3693 103.517 17.6177 103.496 19.2514V27.7284H97.9538V18.7274C97.9538 16.8162 97.7896 15.5883 97.4612 15.0438C97.1327 14.4889 96.5477 14.2115 95.7061 14.2115C94.6489 14.2115 93.8329 14.6482 93.2581 15.5216C92.6834 16.3847 92.396 17.6228 92.396 19.236V27.7284H86.8535V10.4662H92.396V12.9939C93.0734 12.0177 93.8483 11.2831 94.7207 10.7899C95.6034 10.2967 96.5734 10.05 97.6305 10.05C98.8211 10.05 99.8732 10.3378 100.787 10.9132C101.7 11.4886 102.393 12.2952 102.865 13.333H102.865Z" fill="#DF4255"/>
<path d="M102.865 13.333C103.563 12.2643 104.389 11.4526 105.344 10.8977C106.308 10.3326 107.366 10.05 108.515 10.05C110.496 10.05 112.005 10.6614 113.042 11.8842C114.078 13.1069 114.596 14.8845 114.596 17.217V27.7284H109.054V18.7274C109.064 18.5938 109.069 18.4551 109.069 18.3112C109.08 18.1674 109.085 17.9619 109.085 17.6947C109.085 16.472 108.905 15.5883 108.546 15.0438C108.187 14.4889 107.607 14.2115 106.806 14.2115C105.759 14.2115 104.949 14.643 104.374 15.5061C103.809 16.3693 103.517 17.6177 103.496 19.2514V27.7284H97.9538V18.7274C97.9538 16.8162 97.7896 15.5883 97.4612 15.0438C97.1327 14.4889 96.5477 14.2115 95.7061 14.2115C94.6489 14.2115 93.8329 14.6482 93.2581 15.5216C92.6834 16.3847 92.396 17.6228 92.396 19.236V27.7284H86.8535V10.4662H92.396V12.9939C93.0734 12.0177 93.8483 11.2831 94.7207 10.7899C95.6034 10.2967 96.5734 10.05 97.6305 10.05C98.8211 10.05 99.8732 10.3378 100.787 10.9132C101.7 11.4886 102.393 12.2952 102.865 13.333H102.865Z" fill="black" fill-opacity="0.2"/>
<path d="M119.555 21.0086V10.4663H125.097V12.1925C125.097 13.1276 125.092 14.3041 125.082 15.722C125.072 17.1297 125.066 18.0699 125.066 18.5426C125.066 19.9297 125.102 20.9315 125.174 21.548C125.246 22.1543 125.369 22.5961 125.544 22.8735C125.769 23.2332 126.062 23.5106 126.421 23.7058C126.791 23.901 127.211 23.9987 127.684 23.9987C128.833 23.9987 129.736 23.5568 130.393 22.6732C131.05 21.7895 131.379 20.5616 131.379 18.9895V10.4663H136.89V27.7285H131.379V25.2317C130.547 26.2386 129.665 26.9836 128.731 27.4665C127.807 27.9392 126.786 28.1755 125.667 28.1755C123.676 28.1755 122.157 27.5641 121.11 26.3414C120.073 25.1186 119.555 23.341 119.555 21.0086H119.555Z" fill="#DF4255"/>
<path d="M119.555 21.0086V10.4663H125.097V12.1925C125.097 13.1276 125.092 14.3041 125.082 15.722C125.072 17.1297 125.066 18.0699 125.066 18.5426C125.066 19.9297 125.102 20.9315 125.174 21.548C125.246 22.1543 125.369 22.5961 125.544 22.8735C125.769 23.2332 126.062 23.5106 126.421 23.7058C126.791 23.901 127.211 23.9987 127.684 23.9987C128.833 23.9987 129.736 23.5568 130.393 22.6732C131.05 21.7895 131.379 20.5616 131.379 18.9895V10.4663H136.89V27.7285H131.379V25.2317C130.547 26.2386 129.665 26.9836 128.731 27.4665C127.807 27.9392 126.786 28.1755 125.667 28.1755C123.676 28.1755 122.157 27.5641 121.11 26.3414C120.073 25.1186 119.555 23.341 119.555 21.0086H119.555Z" fill="black" fill-opacity="0.2"/>
</mask>
<g mask="url(#mask0_612_1696)">
<rect x="39.6152" y="-2.13525" width="101.973" height="36.7316" fill="white"/>
</g>
</svg>
