<svg width="190" height="131" viewBox="0 0 190 131" fill="none" xmlns="http://www.w3.org/2000/svg">
<path d="M120.861 10.7285L149.406 60.8648L137.519 60.2318L115.266 20.4195L68.9406 20.6192L63.1689 11.076L120.861 10.7285Z" fill="url(#paint0_linear_1670_1829)"/>
<path d="M120.627 89.4897L126.959 99.7431L149.405 60.8659L137.518 60.2329L120.627 89.4897Z" fill="url(#paint1_linear_1670_1829)"/>
<path d="M74.6492 50.7571L40.3143 50.6599L17.6848 11.2053L74.8303 11.0042L69.1061 0.791016L0.140625 1.07618L33.894 60.1478L80.8312 60.4712L74.6492 50.7571Z" fill="url(#paint2_linear_1670_1829)"/>
<path d="M91.9745 60.7607L63.4357 110.191L109.414 110.592L103.157 100.175L80.1944 100.753L97.7959 70.2667L121.014 70.8631L126.727 60.9671L91.9745 60.7607Z" fill="url(#paint3_linear_1670_1829)"/>
<path d="M115.124 120.241L183.976 120.022L189.726 110.062L120.691 110.599L115.124 120.241Z" fill="url(#paint4_linear_1670_1829)"/>
<path d="M33.8931 60.1482L27.9878 70.3765L74.676 71.1311L80.8302 60.4716L33.8931 60.1482Z" fill="url(#paint5_linear_1670_1829)"/>
<path d="M86.055 90.6018L97.4716 90.4168L103.157 100.174L80.1946 100.752L86.055 90.6018Z" fill="url(#paint6_linear_1670_1829)"/>
<path d="M22.9355 20.3629L57.4554 20.9722L63.1689 11.0762L17.6855 11.2057L22.9355 20.3629Z" fill="url(#paint7_linear_1670_1829)"/>
<path fill-rule="evenodd" clip-rule="evenodd" d="M74.0114 31.4738L109.233 30.8673L115.265 20.4199L68.94 20.6196L53.916 46.642H65.1378L74.0114 31.4738Z" fill="url(#paint8_linear_1670_1829)"/>
<path fill-rule="evenodd" clip-rule="evenodd" d="M53.8965 74.5059L63.2286 90.9585L69.2359 80.5535L65.6342 74.7118L53.8965 74.5059Z" fill="url(#paint9_linear_1670_1829)"/>
<path fill-rule="evenodd" clip-rule="evenodd" d="M76.3057 35.2148L91.9739 60.7599L126.726 60.9663L120.578 50.3948L97.9649 50.3832L89.1153 35.2148H76.3057Z" fill="url(#paint10_linear_1670_1829)"/>
<path fill-rule="evenodd" clip-rule="evenodd" d="M100.126 46.6422L109.234 30.8672L114.954 40.7109L111.53 46.6422H100.126Z" fill="url(#paint11_linear_1670_1829)"/>
<path fill-rule="evenodd" clip-rule="evenodd" d="M111.882 74.6727L100.165 74.443L120.69 110.601L189.725 110.064L155.342 50.5814L143.321 50.1816L172.28 99.9918L126.958 99.7434L111.882 74.6727ZM99.5768 70.3131H97.8209L97.7949 70.2673L99.5768 70.3131Z" fill="url(#paint12_linear_1670_1829)"/>
<defs>
<linearGradient id="paint0_linear_1670_1829" x1="120.861" y1="10.7284" x2="78.5859" y2="64.9022" gradientUnits="userSpaceOnUse">
<stop stop-color="#95E5FF"/>
<stop offset="1" stop-color="#6B8CFF"/>
</linearGradient>
<linearGradient id="paint1_linear_1670_1829" x1="157.072" y1="45.1492" x2="103.369" y2="42.0469" gradientUnits="userSpaceOnUse">
<stop stop-color="#63A9D1"/>
<stop offset="1" stop-color="#1F47D5"/>
</linearGradient>
<linearGradient id="paint2_linear_1670_1829" x1="60.6232" y1="-4.10562" x2="-34.7963" y2="89.2675" gradientUnits="userSpaceOnUse">
<stop stop-color="#95E5FF"/>
<stop offset="1" stop-color="#6B8CFF"/>
</linearGradient>
<linearGradient id="paint3_linear_1670_1829" x1="145.681" y1="38.5825" x2="4.43659" y2="86.9306" gradientUnits="userSpaceOnUse">
<stop stop-color="#63A9D1"/>
<stop offset="1" stop-color="#1F47D5"/>
</linearGradient>
<linearGradient id="paint4_linear_1670_1829" x1="192.766" y1="91.1243" x2="104.207" y2="165.399" gradientUnits="userSpaceOnUse">
<stop stop-color="#63A9D1"/>
<stop offset="1" stop-color="#1F47D5"/>
</linearGradient>
<linearGradient id="paint5_linear_1670_1829" x1="83.571" y1="46.3497" x2="15.3805" y2="99.7095" gradientUnits="userSpaceOnUse">
<stop stop-color="#63A9D1"/>
<stop offset="1" stop-color="#1F47D5"/>
</linearGradient>
<linearGradient id="paint6_linear_1670_1829" x1="97.4751" y1="90.4188" x2="72.0611" y2="111.815" gradientUnits="userSpaceOnUse">
<stop stop-color="#95E5FF"/>
<stop offset="1" stop-color="#6B8CFF"/>
</linearGradient>
<linearGradient id="paint7_linear_1670_1829" x1="64.7283" y1="-0.658285" x2="11.3263" y2="46.4159" gradientUnits="userSpaceOnUse">
<stop stop-color="#63A9D1"/>
<stop offset="1" stop-color="#1F47D5"/>
</linearGradient>
<linearGradient id="paint8_linear_1670_1829" x1="122.543" y1="1.60268" x2="14.4402" y2="62.0285" gradientUnits="userSpaceOnUse">
<stop stop-color="#63A9D1"/>
<stop offset="1" stop-color="#1F47D5"/>
</linearGradient>
<linearGradient id="paint9_linear_1670_1829" x1="63.4012" y1="69.8974" x2="36.8778" y2="91.8171" gradientUnits="userSpaceOnUse">
<stop stop-color="#95E5FF"/>
<stop offset="1" stop-color="#6B8CFF"/>
</linearGradient>
<linearGradient id="paint10_linear_1670_1829" x1="103.614" y1="40.6003" x2="74.6374" y2="76.5903" gradientUnits="userSpaceOnUse">
<stop stop-color="#95E5FF"/>
<stop offset="1" stop-color="#6B8CFF"/>
</linearGradient>
<linearGradient id="paint11_linear_1670_1829" x1="121.183" y1="27.6542" x2="81.2412" y2="36.8701" gradientUnits="userSpaceOnUse">
<stop stop-color="#63A9D1"/>
<stop offset="1" stop-color="#1F47D5"/>
</linearGradient>
<linearGradient id="paint12_linear_1670_1829" x1="163.796" y1="55.4623" x2="67.8853" y2="149.077" gradientUnits="userSpaceOnUse">
<stop stop-color="#95E5FF"/>
<stop offset="1" stop-color="#6B8CFF"/>
</linearGradient>
</defs>
</svg>
