<?xml version="1.0" encoding="UTF-8" standalone="no"?>
<!-- Created with Inkscape (http://www.inkscape.org/) -->

<svg
   width="247.38536mm"
   height="59.241261mm"
   viewBox="0 0 247.38536 59.241261"
   version="1.1"
   id="svg5"
   inkscape:version="1.2.2 (b0a8486541, 2022-12-01)"
   sodipodi:docname="kamu-logo-color-icon-white-text.svg"
   xmlns:inkscape="http://www.inkscape.org/namespaces/inkscape"
   xmlns:sodipodi="http://sodipodi.sourceforge.net/DTD/sodipodi-0.dtd"
   xmlns="http://www.w3.org/2000/svg"
   xmlns:svg="http://www.w3.org/2000/svg">
  <sodipodi:namedview
     id="namedview7"
     pagecolor="#505050"
     bordercolor="#eeeeee"
     borderopacity="1"
     inkscape:showpageshadow="0"
     inkscape:pageopacity="0"
     inkscape:pagecheckerboard="0"
     inkscape:deskcolor="#505050"
     inkscape:document-units="mm"
     showgrid="false"
     inkscape:zoom="1.0294282"
     inkscape:cx="383.22245"
     inkscape:cy="197.19685"
     inkscape:window-width="1872"
     inkscape:window-height="995"
     inkscape:window-x="0"
     inkscape:window-y="0"
     inkscape:window-maximized="1"
     inkscape:current-layer="layer1" />
  <defs
     id="defs2" />
  <g
     inkscape:label="Layer 1"
     inkscape:groupmode="layer"
     id="layer1"
     transform="translate(18.550696,-57.34956)">
    <path
       fill-rule="evenodd"
       clip-rule="evenodd"
       d="m 9.3824255,57.34956 23.9421425,41.5155 h -7.98062 L 9.3821605,71.18798 l -23.9424635,41.51558 -3.990393,-6.91938 z"
       fill="#f99b81"
       id="path686"
       style="stroke-width:0.264583" />
    <path
       fill-rule="evenodd"
       clip-rule="evenodd"
       d="m 9.3824255,57.34956 -23.9427285,55.354 -3.990393,-6.91938 z"
       fill="#f8ca51"
       id="path688"
       style="stroke-width:0.264583" />
    <path
       fill-rule="evenodd"
       clip-rule="evenodd"
       d="m 9.3824255,57.34956 -2.65e-4,13.83842 -23.9424635,41.51558 z"
       fill="#f9af54"
       id="path690"
       style="stroke-width:0.264583" />
    <path
       fill-rule="evenodd"
       clip-rule="evenodd"
       d="m 9.3824255,57.34956 23.9424125,41.5155 h -7.98089 z"
       fill="#fa7789"
       id="path692"
       style="stroke-width:0.264583" />
    <path
       fill-rule="evenodd"
       clip-rule="evenodd"
       d="M 48.430158,107.45979 0.54515647,107.45952 4.5355765,100.5404 H 36.459088 L 12.51615,59.0249 l 7.980888,6e-5 z"
       fill="#1993c6"
       id="path694"
       style="stroke-width:0.264583" />
    <path
       fill-rule="evenodd"
       clip-rule="evenodd"
       d="M 48.430158,107.45979 12.51615,59.0249 l 7.980888,6e-5 z"
       fill="#35d5d5"
       id="path696"
       style="stroke-width:0.264583" />
    <path
       fill-rule="evenodd"
       clip-rule="evenodd"
       d="M 48.430158,107.45979 36.459088,100.5404 12.51615,59.0249 Z"
       fill="#2cbed7"
       id="path698"
       style="stroke-width:0.264583" />
    <path
       fill-rule="evenodd"
       clip-rule="evenodd"
       d="M 48.430158,107.45979 H 0.54515647 L 4.5355765,100.5404 Z"
       fill="#106fb0"
       id="path700"
       style="stroke-width:0.264583" />
    <path
       fill-rule="evenodd"
       clip-rule="evenodd"
       d="M -14.311224,116.59082 9.6313985,75.07561 13.621844,81.99481 -2.3399125,109.6717 H 45.545408 l -3.99044,6.91912 z"
       fill="#565bd8"
       id="path702"
       style="stroke-width:0.264583" />
    <path
       fill-rule="evenodd"
       clip-rule="evenodd"
       d="m -14.311224,116.59082 59.856632,-6.91912 -3.99044,6.91912 z"
       fill="#da76cb"
       id="path704"
       style="stroke-width:0.264583" />
    <path
       fill-rule="evenodd"
       clip-rule="evenodd"
       d="M -14.311224,116.59082 -2.3399125,109.6717 H 45.545408 Z"
       fill="#a26bd2"
       id="path706"
       style="stroke-width:0.264583" />
    <path
       fill-rule="evenodd"
       clip-rule="evenodd"
       d="M -14.311224,116.59082 9.6313985,75.07561 13.621844,81.99481 Z"
       fill="#2c45ab"
       id="path708"
       style="stroke-width:0.264583" />
    <path
       d="m 62.119178,64.11969 h 9.96077 V 87.71182 L 83.543018,76.2639 h 11.5742 l -15.2191,14.31679 16.41555,16.87936 H 84.238608 L 72.079948,94.45234 v 13.00771 h -9.96077 z"
       fill="#ffffff"
       id="path710"
       style="stroke-width:0.264583" />
    <path
       d="m 113.98148,93.42179 c -2.07751,0 -3.6449,0.35269 -4.70217,1.05833 -1.03876,0.70565 -1.55813,1.74546 -1.55813,3.1197 0,1.2626 0.41724,2.25611 1.252,2.98027 0.85329,0.70564 2.03121,1.05833 3.53352,1.05833 1.87351,0 3.45016,-0.66833 4.72995,-2.00527 1.27979,-1.35573 1.91982,-3.04536 1.91982,-5.06942 v -1.14194 z m 15.2191,-3.76026 v 17.79852 h -10.04411 v -4.62386 c -1.33562,1.89416 -2.83792,3.2774 -4.50744,4.15026 -1.66926,0.85407 -3.70047,1.28137 -6.09309,1.28137 -3.22766,0 -5.85232,-0.93794 -7.874,-2.81331 -2.003162,-1.89415 -3.004882,-4.34525 -3.004882,-7.3533 0,-3.65813 1.25201,-6.34153 3.756032,-8.04995 2.5228,-1.70815 6.47356,-2.56249 11.8528,-2.56249 h 5.87058 v -0.77972 c 0,-1.57851 -0.62151,-2.72971 -1.86426,-3.45396 -1.24274,-0.74276 -3.18108,-1.11416 -5.81501,-1.11416 -2.13307,0 -4.11771,0.21355 -5.95418,0.64064 -1.83621,0.42709 -3.54277,1.06786 -5.11942,1.92193 v -7.6041 c 2.13333,-0.51993 4.27566,-0.90987 6.42725,-1.16985 2.1516,-0.27853 4.30319,-0.4178 6.45504,-0.4178 5.62002,0 9.67291,1.11416 12.15867,3.34245 2.50401,2.20972 3.75602,5.81226 3.75602,10.80733 z"
       fill="#ffffff"
       id="path712"
       style="stroke-width:0.264583" />
    <path
       d="m 167.34609,81.4446 c 1.26127,-1.93119 2.75431,-3.39815 4.47939,-4.40089 1.74361,-1.02129 3.65417,-1.53196 5.73167,-1.53196 3.57982,0 6.30635,1.10487 8.17986,3.31459 1.87352,2.20975 2.81014,5.42208 2.81014,9.63742 v 18.99629 H 178.53082 V 91.19347 c 0.0185,-0.24157 0.028,-0.49213 0.028,-0.75221 0.0185,-0.25982 0.0278,-0.6313 0.0278,-1.11416 0,-2.20954 -0.32465,-3.80656 -0.97367,-4.79081 -0.64929,-1.00267 -1.6973,-1.50403 -3.14404,-1.50403 -1.89204,0 -3.3573,0.77986 -4.39606,2.33958 -1.02023,1.55998 -1.54887,3.81609 -1.58591,6.76857 v 15.31964 h -10.0163 V 91.19347 c 0,-3.45387 -0.29686,-5.67293 -0.89032,-6.65718 -0.59346,-1.00267 -1.65074,-1.50403 -3.17183,-1.50403 -1.91055,0 -3.38508,0.78912 -4.42383,2.36763 -1.03875,1.55972 -1.55813,3.7973 -1.55813,6.71274 v 15.34742 H 138.4102 V 76.2638 h 10.01633 v 4.568 c 1.22423,-1.76405 2.62467,-3.09176 4.20132,-3.98306 1.59517,-0.89133 3.34803,-1.33699 5.25859,-1.33699 2.15159,0 4.05289,0.51993 5.70362,1.55982 1.65074,1.03987 2.90301,2.49754 3.75603,4.37303 z"
       fill="#ffffff"
       id="path714"
       style="stroke-width:0.264583" />
    <path
       d="M 197.50621,95.31568 V 76.26364 h 10.01633 v 3.11962 c 0,1.68979 -0.01,3.81595 -0.0281,6.37858 -0.0185,2.54397 -0.0278,4.24286 -0.0278,5.09719 0,2.50667 0.0648,4.31721 0.19474,5.43137 0.12964,1.09564 0.35242,1.89415 0.66754,2.39554 0.40825,0.64982 0.93689,1.1512 1.58618,1.50416 0.66754,0.35268 1.42822,0.52916 2.28123,0.52916 2.07751,0 3.70999,-0.79851 4.89691,-2.39554 1.18719,-1.59676 1.78065,-3.81582 1.78065,-6.65691 V 76.26364 h 9.96077 v 31.19615 h -9.96077 v -4.51221 c -1.50231,1.81981 -3.09748,3.16601 -4.78552,4.0386 -1.66926,0.85434 -3.51499,1.28138 -5.53667,1.28138 -3.5986,0 -6.34365,-1.1049 -8.23569,-3.3147 -1.87351,-2.20954 -2.81014,-5.42211 -2.81014,-9.63718 z"
       fill="#ffffff"
       id="path716"
       style="stroke-width:0.264583" />
  </g>
</svg>
